<svg xmlns="http://www.w3.org/2000/svg" xmlns:xlink="http://www.w3.org/1999/xlink" width="500" zoomAndPan="magnify" viewBox="0 0 375 161.249994" height="215" preserveAspectRatio="xMidYMid meet" version="1.0"><defs><g/></defs><g fill="#081f5c" fill-opacity="1"><g transform="translate(2.658295, 125.868503)"><g><path d="M 56.75 -100.046875 L 99.578125 -100.046875 L 99.578125 -81.90625 L 90.671875 -81.90625 L 63.953125 0 L 36.890625 0 L 10.953125 -81.90625 L 1.3125 -81.90625 L 1.3125 -100.046875 L 44.21875 -100.046875 L 44.21875 -81.90625 L 33.53125 -81.90625 L 50.953125 -25.140625 L 68.296875 -81.90625 L 56.75 -81.90625 Z M 56.75 -100.046875 "/></g></g></g><g fill="#081f5c" fill-opacity="1"><g transform="translate(103.623055, 125.868503)"><g><path d="M 5.28125 -68.375 L 35.96875 -68.375 L 35.96875 -18.078125 L 45.46875 -18.078125 L 45.46875 0 L 5.28125 0 L 5.28125 -18.078125 L 15.578125 -18.078125 L 15.578125 -50.28125 L 5.28125 -50.28125 Z M 14.515625 -90.40625 C 14.515625 -92.039062 14.8125 -93.570312 15.40625 -95 C 16 -96.425781 16.820312 -97.664062 17.875 -98.71875 C 18.9375 -99.78125 20.179688 -100.617188 21.609375 -101.234375 C 23.046875 -101.847656 24.597656 -102.15625 26.265625 -102.15625 C 27.847656 -102.15625 29.34375 -101.847656 30.75 -101.234375 C 32.15625 -100.617188 33.382812 -99.78125 34.4375 -98.71875 C 35.5 -97.664062 36.335938 -96.425781 36.953125 -95 C 37.566406 -93.570312 37.875 -92.039062 37.875 -90.40625 C 37.875 -88.78125 37.566406 -87.253906 36.953125 -85.828125 C 36.335938 -84.398438 35.5 -83.15625 34.4375 -82.09375 C 33.382812 -81.039062 32.15625 -80.207031 30.75 -79.59375 C 29.34375 -78.976562 27.847656 -78.671875 26.265625 -78.671875 C 24.597656 -78.671875 23.046875 -78.976562 21.609375 -79.59375 C 20.179688 -80.207031 18.9375 -81.039062 17.875 -82.09375 C 16.820312 -83.15625 16 -84.398438 15.40625 -85.828125 C 14.8125 -87.253906 14.515625 -88.78125 14.515625 -90.40625 Z M 14.515625 -90.40625 "/></g></g></g><g fill="#081f5c" fill-opacity="1"><g transform="translate(155.755187, 125.868503)"><g><path d="M 67.3125 -43.484375 L 48.765625 -43.484375 L 48.765625 -50.546875 C 46.960938 -50.546875 45.3125 -50.425781 43.8125 -50.1875 C 42.320312 -49.945312 41.015625 -49.539062 39.890625 -48.96875 C 38.765625 -48.394531 37.816406 -47.601562 37.046875 -46.59375 C 36.285156 -45.582031 35.75 -44.328125 35.4375 -42.828125 L 35.4375 -18.078125 L 49.359375 -18.078125 L 49.359375 0 L 4.75 0 L 4.75 -18.078125 L 14.984375 -18.078125 L 14.984375 -50.28125 L 4.890625 -50.28125 L 4.890625 -68.375 L 35.3125 -68.375 L 35.3125 -63.546875 C 37.238281 -65.085938 39.410156 -66.273438 41.828125 -67.109375 C 44.253906 -67.953125 46.898438 -68.375 49.765625 -68.375 C 52.660156 -68.375 55.648438 -68.347656 58.734375 -68.296875 C 61.816406 -68.253906 64.675781 -68.234375 67.3125 -68.234375 Z M 67.3125 -43.484375 "/></g></g></g><g fill="#081f5c" fill-opacity="1"><g transform="translate(229.004131, 125.868503)"><g><path d="M 31.078125 -68.375 L 44.75 -68.375 L 44.75 -51.078125 L 30.953125 -51.078125 L 30.8125 -22.171875 C 30.8125 -20.503906 30.941406 -19.148438 31.203125 -18.109375 C 31.472656 -17.078125 31.859375 -16.253906 32.359375 -15.640625 C 32.867188 -15.023438 33.472656 -14.609375 34.171875 -14.390625 C 34.878906 -14.171875 35.695312 -14.0625 36.625 -14.0625 C 38.300781 -14.0625 39.773438 -14.222656 41.046875 -14.546875 C 42.328125 -14.878906 43.601562 -15.265625 44.875 -15.703125 L 47.71875 -2.96875 C 45.46875 -1.5625 42.96875 -0.441406 40.21875 0.390625 C 37.46875 1.234375 34.203125 1.65625 30.421875 1.65625 C 27.734375 1.65625 25.171875 1.191406 22.734375 0.265625 C 20.296875 -0.660156 18.148438 -2.054688 16.296875 -3.921875 C 14.453125 -5.796875 12.976562 -8.140625 11.875 -10.953125 C 10.78125 -13.765625 10.253906 -17.039062 10.296875 -20.78125 L 10.5 -51.078125 L 0.65625 -51.078125 L 0.65625 -68.375 L 10.5625 -68.375 L 10.6875 -84.734375 L 31.21875 -94.5 Z M 31.078125 -68.375 "/></g></g></g><g fill="#081f5c" fill-opacity="1"><g transform="translate(281.796163, 125.868503)"><g><path d="M 47.71875 -68.375 L 80.046875 -68.375 L 80.046875 -18.078125 L 88.296875 -18.078125 L 88.296875 0 L 59.328125 0 L 59.328125 -5.8125 C 56.992188 -3.695312 54.265625 -2.066406 51.140625 -0.921875 C 48.015625 0.222656 44.410156 0.796875 40.328125 0.796875 C 36.535156 0.796875 32.96875 0.203125 29.625 -0.984375 C 26.28125 -2.171875 23.363281 -3.960938 20.875 -6.359375 C 18.394531 -8.765625 16.441406 -11.769531 15.015625 -15.375 C 13.585938 -18.976562 12.875 -23.222656 12.875 -28.109375 L 12.875 -50.28125 L 3.953125 -50.28125 L 3.953125 -68.375 L 34.1875 -68.375 L 34.1875 -28.109375 C 34.1875 -23.535156 35.351562 -20.113281 37.6875 -17.84375 C 40.019531 -15.582031 43.054688 -14.453125 46.796875 -14.453125 C 49.429688 -14.453125 51.828125 -15.265625 53.984375 -16.890625 C 56.140625 -18.523438 57.703125 -20.726562 58.671875 -23.5 L 58.671875 -50.28125 L 47.71875 -50.28125 Z M 48.640625 -77.734375 L 29.3125 -96.609375 L 29.3125 -98.265625 L 50.8125 -98.265625 L 63.75 -77.734375 Z M 48.640625 -77.734375 "/></g></g></g></svg>